<?xml version="1.0" encoding="UTF-8" standalone="no"?>
<svg
   version="1.1"
   width="150.1792mm"
   height="135.05679mm"
   viewBox="0 0 150.1792 135.05679"
   id="svg7"
   sodipodi:docname="acrylic and edge cuts.svg"
   xml:space="preserve"
   inkscape:version="1.4.2 (f4327f4, 2025-05-13)"
   xmlns:inkscape="http://www.inkscape.org/namespaces/inkscape"
   xmlns:sodipodi="http://sodipodi.sourceforge.net/DTD/sodipodi-0.dtd"
   xmlns="http://www.w3.org/2000/svg"
   xmlns:svg="http://www.w3.org/2000/svg"
   xmlns:rdf="http://www.w3.org/1999/02/22-rdf-syntax-ns#"
   xmlns:cc="http://creativecommons.org/ns#"
   xmlns:dc="http://purl.org/dc/elements/1.1/"><defs
     id="defs7"><inkscape:path-effect
       effect="spiro"
       id="path-effect3140"
       is_visible="true"
       lpeversion="1" /><inkscape:path-effect
       effect="spiro"
       id="path-effect3011"
       is_visible="true"
       lpeversion="1" /><inkscape:path-effect
       effect="spiro"
       id="path-effect2914"
       is_visible="true"
       lpeversion="1" /><inkscape:path-effect
       effect="spiro"
       id="path-effect2819"
       is_visible="true"
       lpeversion="1" /><inkscape:path-effect
       effect="spiro"
       id="path-effect2610"
       is_visible="true"
       lpeversion="1" /><inkscape:path-effect
       effect="spiro"
       id="path-effect2421"
       is_visible="true"
       lpeversion="1" /><inkscape:path-effect
       effect="spiro"
       id="path-effect2268"
       is_visible="true"
       lpeversion="1" /><inkscape:path-effect
       effect="spiro"
       id="path-effect2108"
       is_visible="true"
       lpeversion="1" /><inkscape:path-effect
       effect="spiro"
       id="path-effect1996"
       is_visible="true"
       lpeversion="1" /><inkscape:path-effect
       effect="spiro"
       id="path-effect1995"
       is_visible="true"
       lpeversion="1" /><inkscape:path-effect
       effect="spiro"
       id="path-effect992"
       is_visible="true"
       lpeversion="1" /><inkscape:path-effect
       effect="spiro"
       id="path-effect865"
       is_visible="true"
       lpeversion="1" /><inkscape:path-effect
       effect="spiro"
       id="path-effect555"
       is_visible="true"
       lpeversion="1" /><inkscape:path-effect
       effect="spiro"
       id="path-effect519"
       is_visible="true"
       lpeversion="1" /><inkscape:path-effect
       effect="spiro"
       id="path-effect481"
       is_visible="true"
       lpeversion="1" /><inkscape:path-effect
       effect="spiro"
       id="path-effect411"
       is_visible="true"
       lpeversion="1" /><inkscape:path-effect
       effect="spiro"
       id="path-effect371"
       is_visible="true"
       lpeversion="1" /><inkscape:path-effect
       effect="spiro"
       id="path-effect345"
       is_visible="true"
       lpeversion="1" /></defs><sodipodi:namedview
     id="namedview7"
     pagecolor="#ffffff"
     bordercolor="#000000"
     borderopacity="0.25"
     inkscape:showpageshadow="2"
     inkscape:pageopacity="0.0"
     inkscape:pagecheckerboard="0"
     inkscape:deskcolor="#d1d1d1"
     inkscape:document-units="mm"
     inkscape:zoom="5.881108"
     inkscape:cx="306.91496"
     inkscape:cy="171.14122"
     inkscape:window-width="1920"
     inkscape:window-height="1009"
     inkscape:window-x="1912"
     inkscape:window-y="-8"
     inkscape:window-maximized="1"
     inkscape:current-layer="svg7" /><title
     id="title1">SVG Image created as Swadge-HW-Edge_Cuts.svg date 2026-08-31T19:09:57 </title><desc
     id="desc1">Image generated by PCBNEW </desc><path
     style="display:inline;fill:#eecd84;fill-opacity:0.476274;stroke:#000000;stroke-width:0.221947"
     d="M 5.9748291,0.16846517 C 0.23519914,14.724863 -1.3390799,30.742903 1.4645101,46.057654 c 1.82479,9.96804 5.4841684,19.641885 10.8778889,28.365193 3.22498,5.215801 7.063755,10.088944 11.421525,14.498857 -1.00264,2.072113 -1.935869,4.174637 -2.798279,6.302975 -4.43555,11.428841 -5.774557,27.457221 1.266073,39.090121 11.056268,2.10865 25.704181,-1.22972 35.314123,-7.74113 4.353337,-0.7509 12.092251,-1.18121 17.471285,-1.25574 5.460646,0.0757 13.353385,0.51822 17.667139,1.29036 9.610705,6.48876 24.226185,9.81145 35.262965,7.70651 7.04063,-11.6329 5.70162,-27.66128 1.26607,-39.090121 -0.86241,-2.128338 -1.79564,-4.230862 -2.79828,-6.302975 4.35777,-4.409913 8.19655,-9.283056 11.42153,-14.498857 5.39372,-8.723308 9.0531,-18.397153 10.87789,-28.365193 2.80359,-15.314751 1.22931,-31.332791 -4.51032,-45.88918883 C 128.2982,10.733428 114.14288,23.673035 102.41649,38.367167 99.117336,42.50128 96.009027,46.772898 93.103878,51.165869 90.408375,49.412685 87.478619,48.06049 84.40415,47.15061 c -0.877466,-2.788193 -2.407692,-6.822226 -4.262789,-8.228438 -1.85236,-1.40417 -3.377924,-1.304313 -5.066874,-1.304313 -0.019,0 -0.03826,-7e-5 -0.05736,0 -0.01906,-7e-5 -0.03833,0 -0.05736,0 -1.688949,0 -3.214502,-0.09991 -5.066875,1.304313 -1.855161,1.406268 -3.385864,5.440233 -4.263305,8.228438 -3.035656,0.898643 -3.456013,1.283809 -6.03357,2.420532 -1.62431,-2.453798 -5.069615,-7.731807 -6.938491,-10.25386 C 51.727847,38.062678 49.201884,40.170884 47.76246,38.367167 36.03607,23.673034 21.88075,10.733428 5.9748291,0.16846517 Z"
     id="path19" /><path
     style="display:inline;fill:#eecd84;fill-opacity:0.476274;stroke:#000000;stroke-width:0.221947"
     d="m 87.348222,31.895427 h 5.16e-4 c 0.83237,-1.6e-4 1.507272,0.674505 1.507402,1.506885 0,0.0241 -0.0011,0.04825 -0.0021,0.07235 h 2.334741 c 0.63556,0 1.147734,0.511666 1.147734,1.147216 v 0.387574 c 0,0.63556 -0.484244,1.147216 -1.147734,1.147216 h -7.365442 c -0.63556,0 -1.147217,-0.511656 -1.147217,-1.147216 v -0.387577 c 0,-0.63555 0.511657,-1.147216 1.147217,-1.147216 h 2.020032 c -0.0016,-0.0241 -0.0021,-0.04815 -0.0021,-0.07235 1.3e-4,-0.83218 0.674715,-1.506755 1.506885,-1.506885 z"
     id="path22" /><metadata
     id="metadata3140"><rdf:RDF><cc:Work
         rdf:about=""><dc:title>SVG Image created as Swadge-HW-Edge_Cuts.svg date 2026-08-31T19:09:57 </dc:title></cc:Work></rdf:RDF></metadata><path
     style="display:inline;fill:#84ee93;fill-opacity:0.476274;stroke:#000000;stroke-width:0.221947"
     d="M 5.9749549,0.16836198 C 0.23532494,14.72476 -1.3389541,30.742799 1.4646359,46.05755 c 1.82479,9.96804 5.4841684,19.641886 10.8778891,28.365194 3.22498,5.215801 7.063755,10.088943 11.421525,14.498856 -1.00264,2.072113 -1.935868,4.174637 -2.798278,6.302975 -4.43555,11.428845 -5.774558,27.457225 1.266072,39.090125 12.31988,2.34965 29.0992,-2.06376 38.39869,-10.09448 1.683597,-1.4539 6.788987,-7.36008 9.697599,-10.89391 a 33.485611,33.935497 0 0 0 4.68912,0.33435 33.485611,33.935497 0 0 0 4.81831,-0.35295 c 2.905929,3.53163 8.026498,9.45601 9.713102,10.91251 9.299493,8.03072 26.078805,12.44413 38.398685,10.09448 7.04063,-11.6329 5.70162,-27.66128 1.26607,-39.090125 -0.86241,-2.128338 -1.79563,-4.230862 -2.79827,-6.302975 4.35777,-4.409913 8.19654,-9.283055 11.42152,-14.498856 5.39372,-8.723308 9.0531,-18.397154 10.87789,-28.365194 2.80359,-15.314751 1.22931,-31.33279 -4.51032,-45.88918802 C 128.29832,10.733325 114.143,23.672931 102.41661,38.367063 99.11746,42.501176 96.009153,46.772794 93.104004,51.165765 A 33.485611,33.935497 0 0 0 75.017253,45.789866 33.485611,33.935497 0 0 0 57.031787,51.100653 C 54.13908,46.730725 51.045336,42.480621 47.762585,38.367063 36.036195,23.672931 21.880876,10.733325 5.9749549,0.16836198 Z M 15.394019,21.221857 c 6.73194,3.973779 13.107874,8.491568 19.036564,13.489099 6.901615,5.817659 13.195745,12.285838 18.761128,19.277893 a 33.485611,33.935497 0 0 0 -11.66027,25.736414 33.485611,33.935497 0 0 0 23.222355,32.301907 c -5.241867,6.37614 -12.414866,11.31159 -20.440096,14.02136 -5.40562,1.82523 -11.180752,2.6556 -16.912662,2.43293 -2.14879,-4.17299 -3.39829,-8.76154 -3.64939,-13.40125 -0.30473,-5.63104 -0.838696,-8.99672 0.729154,-14.43478 1.22704,-4.255918 3.505228,-8.860154 4.643128,-12.102618 C 24.34949,83.184573 20.377314,77.181423 17.363924,70.77077 11.839663,59.018572 9.5966531,45.759862 11.877954,33.072296 c 0.728761,-4.053018 1.909875,-8.032493 3.516065,-11.850439 z m 119.391161,0 c 1.60619,3.817946 2.7873,7.797421 3.51606,11.850439 2.2813,12.687566 0.0383,25.946276 -5.48597,37.698474 -3.01339,6.410653 -6.98556,12.413803 -11.76,17.772042 1.1379,3.242464 3.41608,7.846696 4.64312,12.102618 1.56785,5.43806 1.03389,8.80374 0.72916,14.43478 -0.2511,4.63971 -1.5006,9.22826 -3.64939,13.40125 -5.73191,0.22267 -11.50704,-0.6077 -16.91266,-2.43293 -8.040946,-2.71507 -15.226032,-7.66428 -20.470586,-14.05857 a 33.485611,33.935497 0 0 0 23.108146,-32.264697 33.485611,33.935497 0 0 0 -11.575,-25.662 c 5.57997,-7.020601 11.89444,-13.514002 18.82055,-19.352307 5.92869,-4.997531 12.30463,-9.51532 19.03657,-13.489099 z m -68.778747,41.476021 0.645439,3.146061 h 16.755566 l 0.964282,-3.146061 5.124235,1.28726 -0.346748,1.858801 h 5.094779 v 10.981242 h 2.039669 v 5.758822 H 94.243986 L 93.92876,96.685984 h -4.480347 l 0.137459,1.690853 -5.102014,1.420072 -1.121895,-3.110925 c -5.960404,-0.04253 -5.44189,0 -11.402405,0 h -5.114933 l -0.987537,3.099555 -5.057572,-1.385964 0.260449,-1.713591 H 56.223568 V 82.584003 h -2.328024 v -5.758822 h 2.328024 V 65.843939 h 4.6762 l -0.215491,-1.858801 z"
     id="path2"
     inkscape:label="acrylic" /></svg>
