<?xml version="1.0" encoding="UTF-8" standalone="no"?>
<svg
   version="1.1"
   width="145.59076mm"
   height="136.5388mm"
   viewBox="0 0 145.59076 136.5388"
   id="svg7"
   sodipodi:docname="acrylic and edge cuts.svg"
   xml:space="preserve"
   inkscape:version="1.4.2 (f4327f4, 2025-05-13)"
   xmlns:inkscape="http://www.inkscape.org/namespaces/inkscape"
   xmlns:sodipodi="http://sodipodi.sourceforge.net/DTD/sodipodi-0.dtd"
   xmlns="http://www.w3.org/2000/svg"
   xmlns:svg="http://www.w3.org/2000/svg"
   xmlns:rdf="http://www.w3.org/1999/02/22-rdf-syntax-ns#"
   xmlns:cc="http://creativecommons.org/ns#"
   xmlns:dc="http://purl.org/dc/elements/1.1/"><defs
     id="defs7"><inkscape:path-effect
       effect="spiro"
       id="path-effect3140"
       is_visible="true"
       lpeversion="1" /><inkscape:path-effect
       effect="spiro"
       id="path-effect3011"
       is_visible="true"
       lpeversion="1" /><inkscape:path-effect
       effect="spiro"
       id="path-effect2914"
       is_visible="true"
       lpeversion="1" /><inkscape:path-effect
       effect="spiro"
       id="path-effect2819"
       is_visible="true"
       lpeversion="1" /><inkscape:path-effect
       effect="spiro"
       id="path-effect2610"
       is_visible="true"
       lpeversion="1" /><inkscape:path-effect
       effect="spiro"
       id="path-effect2421"
       is_visible="true"
       lpeversion="1" /><inkscape:path-effect
       effect="spiro"
       id="path-effect2268"
       is_visible="true"
       lpeversion="1" /><inkscape:path-effect
       effect="spiro"
       id="path-effect2108"
       is_visible="true"
       lpeversion="1" /><inkscape:path-effect
       effect="spiro"
       id="path-effect1996"
       is_visible="true"
       lpeversion="1" /><inkscape:path-effect
       effect="spiro"
       id="path-effect1995"
       is_visible="true"
       lpeversion="1" /><inkscape:path-effect
       effect="spiro"
       id="path-effect992"
       is_visible="true"
       lpeversion="1" /><inkscape:path-effect
       effect="spiro"
       id="path-effect865"
       is_visible="true"
       lpeversion="1" /><inkscape:path-effect
       effect="spiro"
       id="path-effect555"
       is_visible="true"
       lpeversion="1" /><inkscape:path-effect
       effect="spiro"
       id="path-effect519"
       is_visible="true"
       lpeversion="1" /><inkscape:path-effect
       effect="spiro"
       id="path-effect481"
       is_visible="true"
       lpeversion="1" /><inkscape:path-effect
       effect="spiro"
       id="path-effect411"
       is_visible="true"
       lpeversion="1" /><inkscape:path-effect
       effect="spiro"
       id="path-effect371"
       is_visible="true"
       lpeversion="1" /><inkscape:path-effect
       effect="spiro"
       id="path-effect345"
       is_visible="true"
       lpeversion="1" /></defs><sodipodi:namedview
     id="namedview7"
     pagecolor="#ffffff"
     bordercolor="#000000"
     borderopacity="0.25"
     inkscape:showpageshadow="2"
     inkscape:pageopacity="0.0"
     inkscape:pagecheckerboard="0"
     inkscape:deskcolor="#d1d1d1"
     inkscape:document-units="mm"
     inkscape:zoom="2.0792857"
     inkscape:cx="163.27723"
     inkscape:cy="278.70148"
     inkscape:window-width="2560"
     inkscape:window-height="1369"
     inkscape:window-x="1912"
     inkscape:window-y="-8"
     inkscape:window-maximized="1"
     inkscape:current-layer="g1" /><title
     id="title1">SVG Image created as Swadge-HW-Edge_Cuts.svg date 2026-08-31T19:09:57 </title><desc
     id="desc1">Image generated by PCBNEW </desc><g
     style="display:inline;vector-effect:non-scaling-stroke;fill:#000000;fill-opacity:1;stroke:#000000;stroke-width:0.264583;stroke-linecap:round;stroke-linejoin:round;stroke-dasharray:none;stroke-opacity:1;-inkscape-stroke:hairline"
     id="g1"
     transform="rotate(180,84.638511,90.090287)"><path
       id="path1"
       style="vector-effect:non-scaling-stroke;fill:none;fill-opacity:1;stroke:#000000;stroke-width:0.264583;stroke-linecap:round;stroke-linejoin:round;stroke-dasharray:none;stroke-opacity:1;-inkscape-stroke:hairline"
       d="m 139.96381,49.150522 c -7.11842,0.08058 -15.24929,1.724521 -22.22242,6.034774 -4.60067,2.843782 -11.6494,5.002367 -18.475356,4.9413 -6.102343,-0.03695 -13.265571,-1.384648 -16.68322,-3.546036 -11.241326,-7.109233 -26.406347,-7.547948 -33.222778,-7.309115 -2.178649,4.971567 -3.276857,7.809558 -4.178556,13.89786 -0.901699,6.088302 -0.781504,19.777521 3.365686,27.529586 -6.039824,5.813304 -15.820303,18.868719 -20.88193,42.068749 -1.809091,10.07184 -3.155936,20.91018 0.525033,30.72009 1.69718,3.08896 2.922994,7.83336 6.942212,8.45323 4.75549,-0.65598 7.883946,-4.96126 11.248409,-7.99176 11.188985,-11.95927 22.576835,-23.80027 32.547884,-36.81946 2.850838,2.27052 6.0694,4.01251 9.479008,5.21312 0.863429,2.79131 2.429051,7.02371 4.338753,8.47132 1.852369,1.40417 3.377925,1.30431 5.066874,1.30431 1.68895,0 3.485061,-0.29845 5.066871,-1.30431 1.76305,-1.1211 3.12354,-4.36997 4.01009,-7.16339 2.21378,-0.44276 4.3827,-1.10556 6.46524,-1.99109 1.63871,1.75203 5.17143,7.24584 8.40311,10.50117 0.95848,0.96549 2.77088,0.33015 3.39927,-0.17054 0.39174,-0.31213 0.82668,-0.66937 1.27796,-1.04593 3.18998,3.55472 6.43903,7.05777 9.64954,10.59264 5.95026,6.04976 11.15733,13.11026 18.40301,17.69091 2.76161,1.82596 4.76712,0.0579 7.03937,-2.91869 5.45177,-7.81827 5.27886,-20.38063 3.85454,-30.60691 -0.68368,-4.26462 -1.07959,-7.53541 -2.34714,-12.49847 -1.26755,-4.96306 -3.27711,-12.07865 -5.57227,-17.13383 -2.29516,-5.05518 -4.57324,-8.85648 -7.83622,-13.13357 2.58169,-7.484024 2.93047,-11.089492 3.67006,-17.293001 0.45796,-9.172655 -0.95901,-19.694667 -4.64571,-25.761218 -2.57501,-0.493146 -5.53265,-0.767448 -8.68732,-0.731739 z M 85.855734,142.49965 h 7.365448 c 0.63556,0 1.14722,0.51166 1.14722,1.14722 v 0.38757 c 0,0.63555 -0.51166,1.14722 -1.14722,1.14722 h -2.020037 c 0.0011,0.0241 0.0016,0.0482 0.0016,0.0724 -1.34e-4,0.83218 -0.674712,1.50675 -1.506885,1.50688 -0.832376,1.6e-4 -1.507268,-0.6745 -1.507401,-1.50688 1.09e-4,-0.0241 7.98e-4,-0.0483 0.0021,-0.0724 h -2.334742 c -0.635555,0 -1.147733,-0.51167 -1.147733,-1.14722 v -0.38757 c 0,-0.63556 0.484239,-1.14722 1.147733,-1.14722 z"
       sodipodi:nodetypes="sscscscccccccsssccsscccccsscccssssssccsccsssss" /></g><path
     id="circle22270"
     style="display:inline;fill:#ff0505;fill-opacity:1;stroke:none;stroke-width:0.5;stroke-linecap:round;stroke-linejoin:round;stroke-dasharray:none;stroke-opacity:1"
     d="m 27.905274,135.51663 c 7.616,-0.49761 15.11722,-3.01466 21.377497,-7.38043 2.87118,-2.00229 10.32462,-8.47175 11.9614,-14.10256 2.37652,0.50639 5.78941,0.85167 8.21928,0.85169 2.66676,5e-5 5.32464,-0.30739 7.920972,-0.91623 2.69809,3.47979 7.99795,9.95651 9.69089,11.49491 8.92006,8.10578 25.015267,12.56074 36.832477,10.18913 6.75336,-11.74162 5.46887,-27.91989 1.21429,-39.455559 -0.82722,-2.14823 -1.72234,-4.27041 -2.68407,-6.36189 4.17996,-4.45113 7.862,-9.36969 10.9554,-14.63424 5.17365,-8.80484 8.68365,-18.5691 10.43399,-28.630306 2.6892,-15.45789 1.17909,-31.62566 -4.32635,-46.3181096 -15.25694,10.6637096 -28.83488,23.7243196 -40.082817,38.5557896 -3.29992,4.35126 -6.40039,8.85346 -9.28884,13.48807 l -0.0491,-0.004 c -5.96898,-4.41064 -13.1951,-6.79079 -20.616842,-6.7908 -6.14532,-8e-5 -12.18038,1.63222 -17.48783,4.72994 l -0.0568,-0.0274 C 48.354901,45.561985 44.721994,40.97232 41.021814,36.437515 30.828894,23.945465 20.125184,11.870675 8.9457342,0.2531554 3.5146941,11.660025 0.54047416,24.229035 0.28373416,36.860225 c -0.26228,12.90395 0.91412004,26.102456 6.94951004,37.510996 2.52784,4.77831 5.6392598,9.24772 9.2433598,13.2767 -2.09455,5.023 -3.57234,10.30284 -4.38991,15.683279 -1.6017,10.54087 0.80671,21.32798 4.23895,31.42229 3.80434,0.75898 7.7086,1.01618 11.57966,0.76326 z m -6.46109,-6.44302 c 0,0 -2.62884,-7.44467 -3.23908,-11.33729 -1.60895,-10.26327 -1.21905,-20.900739 3.68873,-30.056989 -9.99834,-10.6219 -14.5133698,-25.09583 -14.9810598,-39.675706 -0.31593,-9.84899 1.82058,-19.76731 6.1634498,-28.61274 6.38866,4.65569 12.46543,9.73969 18.17563,15.20631 5.98412,5.72886 11.56557,11.87828 16.689937,18.38752 -8.318527,6.579646 -13.170237,16.603076 -13.170257,27.209186 9e-5,13.95481 8.36156,26.551169 21.221447,31.969629 -1.95837,4.78566 -5.05689,9.2661 -9.35499,12.14086 -9.299717,6.22006 -25.193807,4.76922 -25.193807,4.76922 z m 97.505166,0.69195 c -5.49804,0.22475 -11.03771,-0.61389 -16.22278,-2.45618 -8.019567,-2.84942 -15.151707,-8.13651 -20.226677,-14.96653 13.0905,-5.30809 21.655387,-18.023199 21.655527,-32.148949 8e-5,-9.38287 -3.80049,-18.36565 -10.534747,-24.899256 l 0.0594,-0.0119 c 5.46782,-7.32856 11.686147,-14.09668 18.526507,-20.16416 5.68679,-5.04424 11.8026,-9.60427 18.25987,-13.61519 1.54066,3.85363 2.67338,7.87013 3.37241,11.96103 2.18822,12.80615 0.0366,26.188886 -5.26222,38.050926 -2.89044,6.47057 -6.70029,12.5296 -11.27993,17.93792 1.09147,3.27277 3.27644,7.92023 4.45341,12.215939 1.50388,5.48889 0.99207,8.88583 0.69977,14.5695 -0.24085,4.68307 -1.43944,9.31483 -3.50056,13.52683 z M 86.790083,99.116781 84.093774,97.144875 71.901571,97.081255 v 1.97714 h -5.68906 v -1.97714 H 54.439612 l -2.767301,2.03553 -3.88503,-3.7145 2.50941,-3.085464 -0.0315,-9.288456 h -2.25154 l 0.045,-5.75882 h 2.28311 v -7.243462 l -2.2195,-2.796971 4.04937,-4.1765 2.267981,2.50063 h 11.773019 v -2.05053 l 5.68906,0.0315 v 2.01901 h 12.192083 l 2.539189,-2.50063 3.97702,4.1765 -2.247972,2.796991 v 7.243442 h 2.03967 v 5.75882 h -2.03967 v 9.288472 l 2.24793,3.085444 z"
     sodipodi:nodetypes="sscccscscsscscccccscsscscssccscscccsscccsccscsscsscccccccccccccccccccccccccccccccccccc" /><metadata
     id="metadata3140"><rdf:RDF><cc:Work
         rdf:about=""><dc:title>SVG Image created as Swadge-HW-Edge_Cuts.svg date 2026-08-31T19:09:57 </dc:title></cc:Work></rdf:RDF></metadata></svg>
