999
"DXF R12 Output" (www.mydxf.blogspot.com)
 0 
SECTION
 2 
HEADER
 9 
$ACADVER
 1 
AC1009
 9 
$EXTMIN
 10 
 0 
 20 
 0 
 9 
$EXTMAX
 10 
 8.5 
 20 
 11 
 0 
ENDSEC
 0 
SECTION
 2 
ENTITIES
0
POLYLINE
8
Layer 1
62
7
70
0
10
0.000000
20
0.000000
66
1
0
VERTEX
8
Layer 1
10
29.313190
20
5.508322
70
0
0
VERTEX
8
Layer 1
10
34.165460
20
5.671172
70
0
0
VERTEX
8
Layer 1
10
38.281267
20
6.059214
70
0
0
VERTEX
8
Layer 1
10
42.015554
20
6.702993
70
0
0
VERTEX
8
Layer 1
10
45.723260
20
7.633053
70
0
0
VERTEX
8
Layer 1
10
50.846384
20
8.755925
70
0
0
VERTEX
8
Layer 1
10
57.560758
20
9.782167
70
0
0
VERTEX
8
Layer 1
10
64.580313
20
10.521745
70
0
0
VERTEX
8
Layer 1
10
70.618976
20
10.784625
70
0
0
VERTEX
8
Layer 1
10
75.747024
20
10.655901
70
0
0
VERTEX
8
Layer 1
10
81.372960
20
10.342874
70
0
0
VERTEX
8
Layer 1
10
86.589603
20
9.851176
70
0
0
VERTEX
8
Layer 1
10
90.489771
20
9.186440
70
0
0
VERTEX
8
Layer 1
10
94.369369
20
8.285841
70
0
0
VERTEX
8
Layer 1
10
98.382687
20
7.512700
70
0
0
VERTEX
8
Layer 1
10
106.428075
20
6.354420
70
0
0
VERTEX
8
Layer 1
10
113.861109
20
5.722852
70
0
0
VERTEX
8
Layer 1
10
119.916964
20
5.629245
70
0
0
VERTEX
8
Layer 1
10
121.362179
20
9.041998
70
0
0
VERTEX
8
Layer 1
10
122.485098
20
12.159399
70
0
0
VERTEX
8
Layer 1
10
123.368589
20
15.486189
70
0
0
VERTEX
8
Layer 1
10
124.095520
20
19.527105
70
0
0
VERTEX
8
Layer 1
10
124.379887
20
22.140070
70
0
0
VERTEX
8
Layer 1
10
124.533234
20
25.306971
70
0
0
VERTEX
8
Layer 1
10
124.520348
20
28.869160
70
0
0
VERTEX
8
Layer 1
10
124.306010
20
32.667987
70
0
0
VERTEX
8
Layer 1
10
123.855006
20
36.544803
70
0
0
VERTEX
8
Layer 1
10
123.132120
20
40.340958
70
0
0
VERTEX
8
Layer 1
10
122.102134
20
43.897804
70
0
0
VERTEX
8
Layer 1
10
120.729834
20
47.056691
70
0
0
VERTEX
8
Layer 1
10
123.153589
20
49.581823
70
0
0
VERTEX
8
Layer 1
10
125.828895
20
52.819916
70
0
0
VERTEX
8
Layer 1
10
128.656618
20
56.804985
70
0
0
VERTEX
8
Layer 1
10
131.537623
20
61.571043
70
0
0
VERTEX
8
Layer 1
10
134.372775
20
67.152104
70
0
0
VERTEX
8
Layer 1
10
137.062939
20
73.582181
70
0
0
VERTEX
8
Layer 1
10
139.508980
20
80.895289
70
0
0
VERTEX
8
Layer 1
10
140.609475
20
84.893608
70
0
0
VERTEX
8
Layer 1
10
141.611764
20
89.125440
70
0
0
VERTEX
8
Layer 1
10
142.810574
20
96.794993
70
0
0
VERTEX
8
Layer 1
10
143.211219
20
100.684973
70
0
0
VERTEX
8
Layer 1
10
143.408020
20
104.583709
70
0
0
VERTEX
8
Layer 1
10
143.347474
20
108.470167
70
0
0
VERTEX
8
Layer 1
10
142.976080
20
112.323313
70
0
0
VERTEX
8
Layer 1
10
142.240333
20
116.122112
70
0
0
VERTEX
8
Layer 1
10
141.086731
20
119.845530
70
0
0
VERTEX
8
Layer 1
10
139.851215
20
122.382333
70
0
0
VERTEX
8
Layer 1
10
138.486389
20
124.998054
70
0
0
VERTEX
8
Layer 1
10
137.659838
20
126.166173
70
0
0
VERTEX
8
Layer 1
10
136.686181
20
127.150820
70
0
0
VERTEX
8
Layer 1
10
135.527161
20
127.884260
70
0
0
VERTEX
8
Layer 1
10
134.144519
20
128.298760
70
0
0
VERTEX
8
Layer 1
10
132.433839
20
127.891324
70
0
0
VERTEX
8
Layer 1
10
130.853860
20
127.199470
70
0
0
VERTEX
8
Layer 1
10
129.382751
20
126.280902
70
0
0
VERTEX
8
Layer 1
10
127.998679
20
125.193325
70
0
0
VERTEX
8
Layer 1
10
125.404316
20
122.741957
70
0
0
VERTEX
8
Layer 1
10
122.896110
20
120.307000
70
0
0
VERTEX
8
Layer 1
10
114.492329
20
111.339466
70
0
0
VERTEX
8
Layer 1
10
106.165442
20
102.294740
70
0
0
VERTEX
8
Layer 1
10
98.066918
20
93.051279
70
0
0
VERTEX
8
Layer 1
10
94.150626
20
88.317041
70
0
0
VERTEX
8
Layer 1
10
90.348226
20
83.487540
70
0
0
VERTEX
8
Layer 1
10
88.143910
20
85.091130
70
0
0
VERTEX
8
Layer 1
10
85.818261
20
86.495316
70
0
0
VERTEX
8
Layer 1
10
83.387842
20
87.698895
70
0
0
VERTEX
8
Layer 1
10
80.869218
20
88.700660
70
0
0
VERTEX
8
Layer 1
10
80.095581
20
90.998317
70
0
0
VERTEX
8
Layer 1
10
79.092194
20
93.440207
70
0
0
VERTEX
8
Layer 1
10
77.892631
20
95.630154
70
0
0
VERTEX
8
Layer 1
10
77.229775
20
96.506843
70
0
0
VERTEX
8
Layer 1
10
76.530465
20
97.171980
70
0
0
VERTEX
8
Layer 1
10
75.194806
20
97.968163
70
0
0
VERTEX
8
Layer 1
10
73.935745
20
98.350699
70
0
0
VERTEX
8
Layer 1
10
72.707326
20
98.469953
70
0
0
VERTEX
8
Layer 1
10
71.463591
20
98.476290
70
0
0
VERTEX
8
Layer 1
10
70.181809
20
98.413941
70
0
0
VERTEX
8
Layer 1
10
68.889978
20
98.201332
70
0
0
VERTEX
8
Layer 1
10
67.618236
20
97.800126
70
0
0
VERTEX
8
Layer 1
10
66.396720
20
97.171980
70
0
0
VERTEX
8
Layer 1
10
65.754586
20
96.656874
70
0
0
VERTEX
8
Layer 1
10
65.151028
20
95.972561
70
0
0
VERTEX
8
Layer 1
10
64.062987
20
94.217405
70
0
0
VERTEX
8
Layer 1
10
63.139291
20
92.148689
70
0
0
VERTEX
8
Layer 1
10
62.386630
20
90.008590
70
0
0
VERTEX
8
Layer 1
10
59.104795
20
89.179084
70
0
0
VERTEX
8
Layer 1
10
55.921390
20
88.017500
70
0
0
VERTEX
8
Layer 1
10
54.371528
20
89.939665
70
0
0
VERTEX
8
Layer 1
10
52.317199
20
92.704347
70
0
0
VERTEX
8
Layer 1
10
49.964187
20
95.750899
70
0
0
VERTEX
8
Layer 1
10
47.518280
20
98.518670
70
0
0
VERTEX
8
Layer 1
10
47.122803
20
98.809079
70
0
0
VERTEX
8
Layer 1
10
46.671153
20
98.969749
70
0
0
VERTEX
8
Layer 1
10
45.694861
20
98.983217
70
0
0
VERTEX
8
Layer 1
10
44.780462
20
98.721777
70
0
0
VERTEX
8
Layer 1
10
44.119010
20
98.348130
70
0
0
VERTEX
8
Layer 1
10
42.841050
20
97.302200
70
0
0
VERTEX
8
Layer 1
10
33.191510
20
107.894840
70
0
0
VERTEX
8
Layer 1
10
28.824697
20
112.567133
70
0
0
VERTEX
8
Layer 1
10
24.475787
20
117.291211
70
0
0
VERTEX
8
Layer 1
10
22.226548
20
119.570406
70
0
0
VERTEX
8
Layer 1
10
19.883986
20
121.739831
70
0
0
VERTEX
8
Layer 1
10
17.415503
20
123.758581
70
0
0
VERTEX
8
Layer 1
10
14.788500
20
125.585750
70
0
0
VERTEX
8
Layer 1
10
13.786341
20
126.106674
70
0
0
VERTEX
8
Layer 1
10
12.843079
20
126.318615
70
0
0
VERTEX
8
Layer 1
10
11.946730
20
126.249525
70
0
0
VERTEX
8
Layer 1
10
11.085305
20
125.927361
70
0
0
VERTEX
8
Layer 1
10
10.246819
20
125.380078
70
0
0
VERTEX
8
Layer 1
10
9.419286
20
124.635630
70
0
0
VERTEX
8
Layer 1
10
7.749130
20
122.667060
70
0
0
VERTEX
8
Layer 1
10
6.791770
20
121.147268
70
0
0
VERTEX
8
Layer 1
10
5.959832
20
119.526658
70
0
0
VERTEX
8
Layer 1
10
4.646598
20
116.024468
70
0
0
VERTEX
8
Layer 1
10
3.758179
20
112.243462
70
0
0
VERTEX
8
Layer 1
10
3.243326
20
108.266609
70
0
0
VERTEX
8
Layer 1
10
3.050790
20
104.176880
70
0
0
VERTEX
8
Layer 1
10
3.129322
20
100.057247
70
0
0
VERTEX
8
Layer 1
10
3.427671
20
95.990680
70
0
0
VERTEX
8
Layer 1
10
3.894590
20
92.060150
70
0
0
VERTEX
8
Layer 1
10
4.849209
20
86.072830
70
0
0
VERTEX
8
Layer 1
10
5.436384
20
83.008645
70
0
0
VERTEX
8
Layer 1
10
6.241730
20
79.561680
70
0
0
VERTEX
8
Layer 1
10
8.642511
20
71.029310
70
0
0
VERTEX
8
Layer 1
10
10.153311
20
66.539735
70
0
0
VERTEX
8
Layer 1
10
11.814000
20
62.427850
70
0
0
VERTEX
8
Layer 1
10
13.547823
20
58.844541
70
0
0
VERTEX
8
Layer 1
10
15.369177
20
55.569281
70
0
0
VERTEX
8
Layer 1
10
17.371998
20
52.439913
70
0
0
VERTEX
8
Layer 1
10
19.650220
20
49.294280
70
0
0
VERTEX
8
Layer 1
10
18.091627
20
44.307294
70
0
0
VERTEX
8
Layer 1
10
17.124402
20
40.167586
70
0
0
VERTEX
8
Layer 1
10
16.502571
20
36.267975
70
0
0
VERTEX
8
Layer 1
10
15.980160
20
32.001279
70
0
0
VERTEX
8
Layer 1
10
15.897083
20
28.509620
70
0
0
VERTEX
8
Layer 1
10
15.994408
20
24.959484
70
0
0
VERTEX
8
Layer 1
10
16.276761
20
21.418896
70
0
0
VERTEX
8
Layer 1
10
16.748767
20
17.955881
70
0
0
VERTEX
8
Layer 1
10
17.415055
20
14.638465
70
0
0
VERTEX
8
Layer 1
10
18.280251
20
11.534673
70
0
0
VERTEX
8
Layer 1
10
19.348980
20
8.712530
70
0
0
VERTEX
8
Layer 1
10
20.625870
20
6.240061
70
0
0
VERTEX
8
Layer 1
10
24.752157
20
5.675871
70
0
0
VERTEX
8
Layer 1
10
29.313190
20
5.508322
70
0
0
VERTEX
8
Layer 1
10
29.313190
20
5.508322
70
0
0
SEQEND
8
Layer 1
0
POLYLINE
8
Layer 1
62
7
70
0
10
0.000000
20
0.000000
66
1
0
VERTEX
8
Layer 1
10
83.421266
20
98.857450
70
0
0
VERTEX
8
Layer 1
10
76.055818
20
98.857450
70
0
0
VERTEX
8
Layer 1
10
75.608438
20
98.947328
70
0
0
VERTEX
8
Layer 1
10
75.243873
20
99.192725
70
0
0
VERTEX
8
Layer 1
10
74.998475
20
99.557290
70
0
0
VERTEX
8
Layer 1
10
74.908598
20
100.004670
70
0
0
VERTEX
8
Layer 1
10
74.908598
20
100.392240
70
0
0
VERTEX
8
Layer 1
10
74.998475
20
100.839616
70
0
0
VERTEX
8
Layer 1
10
75.243873
20
101.204181
70
0
0
VERTEX
8
Layer 1
10
75.608438
20
101.449581
70
0
0
VERTEX
8
Layer 1
10
76.055818
20
101.539460
70
0
0
VERTEX
8
Layer 1
10
78.075855
20
101.539460
70
0
0
VERTEX
8
Layer 1
10
78.074255
20
101.611860
70
0
0
VERTEX
8
Layer 1
10
78.192738
20
102.198368
70
0
0
VERTEX
8
Layer 1
10
78.515683
20
102.677319
70
0
0
VERTEX
8
Layer 1
10
78.994635
20
103.000260
70
0
0
VERTEX
8
Layer 1
10
79.581140
20
103.118740
70
0
0
VERTEX
8
Layer 1
10
80.167811
20
103.000411
70
0
0
VERTEX
8
Layer 1
10
80.646932
20
102.677503
70
0
0
VERTEX
8
Layer 1
10
80.970006
20
102.198493
70
0
0
VERTEX
8
Layer 1
10
81.088541
20
101.611860
70
0
0
VERTEX
8
Layer 1
10
81.086441
20
101.539460
70
0
0
VERTEX
8
Layer 1
10
83.421183
20
101.539460
70
0
0
VERTEX
8
Layer 1
10
83.868641
20
101.449581
70
0
0
VERTEX
8
Layer 1
10
84.233383
20
101.204181
70
0
0
VERTEX
8
Layer 1
10
84.478958
20
100.839616
70
0
0
VERTEX
8
Layer 1
10
84.568916
20
100.392240
70
0
0
VERTEX
8
Layer 1
10
84.568916
20
100.004670
70
0
0
VERTEX
8
Layer 1
10
84.482887
20
99.557290
70
0
0
VERTEX
8
Layer 1
10
84.243860
20
99.192725
70
0
0
VERTEX
8
Layer 1
10
83.880428
20
98.947328
70
0
0
VERTEX
8
Layer 1
10
83.421183
20
98.857450
70
0
0
VERTEX
8
Layer 1
10
83.421266
20
98.857450
70
0
0
SEQEND
8
Layer 1
0
POLYLINE
8
Layer 1
62
7
70
0
10
0.000000
20
0.000000
66
1
0
VERTEX
8
Layer 1
10
27.905274
20
1.022370
70
0
0
VERTEX
8
Layer 1
10
30.753694
20
1.303302
70
0
0
VERTEX
8
Layer 1
10
33.578156
20
1.771555
70
0
0
VERTEX
8
Layer 1
10
36.365464
20
2.425130
70
0
0
VERTEX
8
Layer 1
10
39.102419
20
3.262025
70
0
0
VERTEX
8
Layer 1
10
41.775824
20
4.280240
70
0
0
VERTEX
8
Layer 1
10
44.372483
20
5.477775
70
0
0
VERTEX
8
Layer 1
10
46.879197
20
6.852628
70
0
0
VERTEX
8
Layer 1
10
49.282771
20
8.402800
70
0
0
VERTEX
8
Layer 1
10
52.132847
20
10.659208
70
0
0
VERTEX
8
Layer 1
10
55.726371
20
14.093385
70
0
0
VERTEX
8
Layer 1
10
57.497271
20
16.096692
70
0
0
VERTEX
8
Layer 1
10
59.088445
20
18.207909
70
0
0
VERTEX
8
Layer 1
10
60.378033
20
20.364857
70
0
0
VERTEX
8
Layer 1
10
61.244171
20
22.505360
70
0
0
VERTEX
8
Layer 1
10
65.333805
20
21.889626
70
0
0
VERTEX
8
Layer 1
10
69.463451
20
21.653670
70
0
0
VERTEX
8
Layer 1
10
73.450347
20
21.883451
70
0
0
VERTEX
8
Layer 1
10
77.384423
20
22.569900
70
0
0
VERTEX
8
Layer 1
10
82.606799
20
16.094424
70
0
0
VERTEX
8
Layer 1
10
85.226321
20
13.030737
70
0
0
VERTEX
8
Layer 1
10
87.075313
20
11.074990
70
0
0
VERTEX
8
Layer 1
10
88.829112
20
9.598715
70
0
0
VERTEX
8
Layer 1
10
90.734301
20
8.212657
70
0
0
VERTEX
8
Layer 1
10
94.931743
20
5.729805
70
0
0
VERTEX
8
Layer 1
10
99.533421
20
3.663648
70
0
0
VERTEX
8
Layer 1
10
104.405120
20
2.051404
70
0
0
VERTEX
8
Layer 1
10
109.412623
20
0.930287
70
0
0
VERTEX
8
Layer 1
10
114.421713
20
0.337513
70
0
0
VERTEX
8
Layer 1
10
119.298175
20
0.310299
70
0
0
VERTEX
8
Layer 1
10
121.644727
20
0.520407
70
0
0
VERTEX
8
Layer 1
10
123.907790
20
0.885860
70
0
0
VERTEX
8
Layer 1
10
125.081089
20
3.137189
70
0
0
VERTEX
8
Layer 1
10
126.073424
20
5.479203
70
0
0
VERTEX
8
Layer 1
10
126.892219
20
7.898601
70
0
0
VERTEX
8
Layer 1
10
127.544897
20
10.382084
70
0
0
VERTEX
8
Layer 1
10
128.038882
20
12.916352
70
0
0
VERTEX
8
Layer 1
10
128.381597
20
15.488106
70
0
0
VERTEX
8
Layer 1
10
128.642912
20
20.690871
70
0
0
VERTEX
8
Layer 1
10
128.388231
20
25.883983
70
0
0
VERTEX
8
Layer 1
10
127.676939
20
30.961043
70
0
0
VERTEX
8
Layer 1
10
126.568427
20
35.815654
70
0
0
VERTEX
8
Layer 1
10
125.122080
20
40.341419
70
0
0
VERTEX
8
Layer 1
10
122.438010
20
46.703309
70
0
0
VERTEX
8
Layer 1
10
125.478202
20
50.127402
70
0
0
VERTEX
8
Layer 1
10
128.323170
20
53.715396
70
0
0
VERTEX
8
Layer 1
10
130.964407
20
57.455907
70
0
0
VERTEX
8
Layer 1
10
133.393410
20
61.337549
70
0
0
VERTEX
8
Layer 1
10
135.255358
20
64.683043
70
0
0
VERTEX
8
Layer 1
10
136.960213
20
68.110719
70
0
0
VERTEX
8
Layer 1
10
138.506851
20
71.612814
70
0
0
VERTEX
8
Layer 1
10
139.894146
20
75.181565
70
0
0
VERTEX
8
Layer 1
10
141.120974
20
78.809207
70
0
0
VERTEX
8
Layer 1
10
142.186209
20
82.487979
70
0
0
VERTEX
8
Layer 1
10
143.088726
20
86.210116
70
0
0
VERTEX
8
Layer 1
10
143.827400
20
89.967855
70
0
0
VERTEX
8
Layer 1
10
144.639406
20
95.793571
70
0
0
VERTEX
8
Layer 1
10
145.060117
20
101.660231
70
0
0
VERTEX
8
Layer 1
10
145.091923
20
107.542227
70
0
0
VERTEX
8
Layer 1
10
144.737215
20
113.413950
70
0
0
VERTEX
8
Layer 1
10
143.998383
20
119.249793
70
0
0
VERTEX
8
Layer 1
10
142.877818
20
125.024149
70
0
0
VERTEX
8
Layer 1
10
141.377911
20
130.711408
70
0
0
VERTEX
8
Layer 1
10
139.501050
20
136.285965
70
0
0
VERTEX
8
Layer 1
10
133.859672
20
132.175942
70
0
0
VERTEX
8
Layer 1
10
128.383329
20
127.848545
70
0
0
VERTEX
8
Layer 1
10
123.079651
20
123.311113
70
0
0
VERTEX
8
Layer 1
10
117.956265
20
118.570980
70
0
0
VERTEX
8
Layer 1
10
113.020802
20
113.635483
70
0
0
VERTEX
8
Layer 1
10
108.280889
20
108.511959
70
0
0
VERTEX
8
Layer 1
10
103.744157
20
103.207744
70
0
0
VERTEX
8
Layer 1
10
99.418233
20
97.730175
70
0
0
VERTEX
8
Layer 1
10
94.619512
20
91.092396
70
0
0
VERTEX
8
Layer 1
10
90.129393
20
84.242105
70
0
0
VERTEX
8
Layer 1
10
90.080293
20
84.246105
70
0
0
VERTEX
8
Layer 1
10
87.785070
20
85.804233
70
0
0
VERTEX
8
Layer 1
10
85.384430
20
87.167905
70
0
0
VERTEX
8
Layer 1
10
82.890813
20
88.333023
70
0
0
VERTEX
8
Layer 1
10
80.316658
20
89.295491
70
0
0
VERTEX
8
Layer 1
10
77.674404
20
90.051211
70
0
0
VERTEX
8
Layer 1
10
74.976492
20
90.596085
70
0
0
VERTEX
8
Layer 1
10
72.235361
20
90.926015
70
0
0
VERTEX
8
Layer 1
10
69.463451
20
91.036905
70
0
0
VERTEX
8
Layer 1
10
67.165330
20
90.960743
70
0
0
VERTEX
8
Layer 1
10
64.884781
20
90.733502
70
0
0
VERTEX
8
Layer 1
10
62.629038
20
90.357139
70
0
0
VERTEX
8
Layer 1
10
60.405335
20
89.833610
70
0
0
VERTEX
8
Layer 1
10
58.220907
20
89.164871
70
0
0
VERTEX
8
Layer 1
10
56.082989
20
88.352880
70
0
0
VERTEX
8
Layer 1
10
53.998816
20
87.399592
70
0
0
VERTEX
8
Layer 1
10
51.975621
20
86.306965
70
0
0
VERTEX
8
Layer 1
10
51.918821
20
86.334365
70
0
0
VERTEX
8
Layer 1
10
41.021814
20
100.101485
70
0
0
VERTEX
8
Layer 1
10
33.281899
20
109.391661
70
0
0
VERTEX
8
Layer 1
10
25.353723
20
118.521614
70
0
0
VERTEX
8
Layer 1
10
17.240573
20
127.487592
70
0
0
VERTEX
8
Layer 1
10
8.945734
20
136.285845
70
0
0
VERTEX
8
Layer 1
10
7.024767
20
131.955942
70
0
0
VERTEX
8
Layer 1
10
5.337181
20
127.529978
70
0
0
VERTEX
8
Layer 1
10
3.886031
20
123.020844
70
0
0
VERTEX
8
Layer 1
10
2.674372
20
118.441430
70
0
0
VERTEX
8
Layer 1
10
1.705258
20
113.804626
70
0
0
VERTEX
8
Layer 1
10
0.981744
20
109.123322
70
0
0
VERTEX
8
Layer 1
10
0.506884
20
104.410408
70
0
0
VERTEX
8
Layer 1
10
0.283734
20
99.678775
70
0
0
VERTEX
8
Layer 1
10
0.259498
20
94.830058
70
0
0
VERTEX
8
Layer 1
10
0.410219
20
89.978154
70
0
0
VERTEX
8
Layer 1
10
0.775980
20
85.147491
70
0
0
VERTEX
8
Layer 1
10
1.396863
20
80.362498
70
0
0
VERTEX
8
Layer 1
10
2.312949
20
75.647602
70
0
0
VERTEX
8
Layer 1
10
3.564320
20
71.027232
70
0
0
VERTEX
8
Layer 1
10
5.191058
20
66.525815
70
0
0
VERTEX
8
Layer 1
10
7.233244
20
62.167779
70
0
0
VERTEX
8
Layer 1
10
9.237125
20
58.644020
70
0
0
VERTEX
8
Layer 1
10
11.451327
20
55.248430
70
0
0
VERTEX
8
Layer 1
10
13.867327
20
51.993339
70
0
0
VERTEX
8
Layer 1
10
16.476604
20
48.891079
70
0
0
VERTEX
8
Layer 1
10
15.022013
20
45.078113
70
0
0
VERTEX
8
Layer 1
10
13.802782
20
41.183479
70
0
0
VERTEX
8
Layer 1
10
12.822984
20
37.221826
70
0
0
VERTEX
8
Layer 1
10
12.086694
20
33.207800
70
0
0
VERTEX
8
Layer 1
10
11.668198
20
29.245265
70
0
0
VERTEX
8
Layer 1
10
11.590654
20
25.270650
70
0
0
VERTEX
8
Layer 1
10
11.819067
20
21.294958
70
0
0
VERTEX
8
Layer 1
10
12.318442
20
17.329195
70
0
0
VERTEX
8
Layer 1
10
13.053782
20
13.384364
70
0
0
VERTEX
8
Layer 1
10
13.990093
20
9.471470
70
0
0
VERTEX
8
Layer 1
10
15.092379
20
5.601517
70
0
0
VERTEX
8
Layer 1
10
16.325644
20
1.785510
70
0
0
VERTEX
8
Layer 1
10
19.195554
20
1.310489
70
0
0
VERTEX
8
Layer 1
10
22.090454
20
1.024417
70
0
0
VERTEX
8
Layer 1
10
24.997864
20
0.928077
70
0
0
VERTEX
8
Layer 1
10
27.905304
20
1.022250
70
0
0
VERTEX
8
Layer 1
10
27.905274
20
1.022370
70
0
0
SEQEND
8
Layer 1
0
POLYLINE
8
Layer 1
62
7
70
0
10
0.000000
20
0.000000
66
1
0
VERTEX
8
Layer 1
10
21.444184
20
7.465390
70
0
0
VERTEX
8
Layer 1
10
20.053484
20
11.674302
70
0
0
VERTEX
8
Layer 1
10
18.968655
20
15.389029
70
0
0
VERTEX
8
Layer 1
10
18.205104
20
18.802680
70
0
0
VERTEX
8
Layer 1
10
17.700364
20
22.665323
70
0
0
VERTEX
8
Layer 1
10
17.412536
20
26.541304
70
0
0
VERTEX
8
Layer 1
10
17.371140
20
30.408880
70
0
0
VERTEX
8
Layer 1
10
17.605695
20
34.246307
70
0
0
VERTEX
8
Layer 1
10
18.145723
20
38.031843
70
0
0
VERTEX
8
Layer 1
10
19.020742
20
41.743744
70
0
0
VERTEX
8
Layer 1
10
20.260272
20
45.360267
70
0
0
VERTEX
8
Layer 1
10
21.893834
20
48.859669
70
0
0
VERTEX
8
Layer 1
10
20.083052
20
50.895502
70
0
0
VERTEX
8
Layer 1
10
18.398682
20
53.016129
70
0
0
VERTEX
8
Layer 1
10
15.400763
20
57.489817
70
0
0
VERTEX
8
Layer 1
10
12.883248
20
62.236834
70
0
0
VERTEX
8
Layer 1
10
10.829310
20
67.213281
70
0
0
VERTEX
8
Layer 1
10
9.222122
20
72.375258
70
0
0
VERTEX
8
Layer 1
10
8.044855
20
77.678865
70
0
0
VERTEX
8
Layer 1
10
7.280682
20
83.080204
70
0
0
VERTEX
8
Layer 1
10
6.912774
20
88.535375
70
0
0
VERTEX
8
Layer 1
10
6.908778
20
92.229765
70
0
0
VERTEX
8
Layer 1
10
7.131814
20
95.917270
70
0
0
VERTEX
8
Layer 1
10
7.578999
20
99.584503
70
0
0
VERTEX
8
Layer 1
10
8.247449
20
103.218080
70
0
0
VERTEX
8
Layer 1
10
9.134280
20
106.804615
70
0
0
VERTEX
8
Layer 1
10
10.236609
20
110.330723
70
0
0
VERTEX
8
Layer 1
10
11.551552
20
113.783018
70
0
0
VERTEX
8
Layer 1
10
13.076224
20
117.148115
70
0
0
VERTEX
8
Layer 1
10
17.808385
20
113.576753
70
0
0
VERTEX
8
Layer 1
10
22.418461
20
109.849059
70
0
0
VERTEX
8
Layer 1
10
26.901326
20
105.969315
70
0
0
VERTEX
8
Layer 1
10
31.251854
20
101.941805
70
0
0
VERTEX
8
Layer 1
10
35.663593
20
97.567254
70
0
0
VERTEX
8
Layer 1
10
39.919230
20
93.040687
70
0
0
VERTEX
8
Layer 1
10
44.013663
20
88.367800
70
0
0
VERTEX
8
Layer 1
10
47.941791
20
83.554285
70
0
0
VERTEX
8
Layer 1
10
44.987555
20
80.931078
70
0
0
VERTEX
8
Layer 1
10
42.374563
20
78.018546
70
0
0
VERTEX
8
Layer 1
10
40.119042
20
74.850215
70
0
0
VERTEX
8
Layer 1
10
38.237222
20
71.459616
70
0
0
VERTEX
8
Layer 1
10
36.745333
20
67.880276
70
0
0
VERTEX
8
Layer 1
10
35.659602
20
64.145724
70
0
0
VERTEX
8
Layer 1
10
34.996260
20
60.289489
70
0
0
VERTEX
8
Layer 1
10
34.771534
20
56.345099
70
0
0
VERTEX
8
Layer 1
10
34.868593
20
53.745912
70
0
0
VERTEX
8
Layer 1
10
35.155963
20
51.187089
70
0
0
VERTEX
8
Layer 1
10
35.627985
20
48.677153
70
0
0
VERTEX
8
Layer 1
10
36.279001
20
46.224630
70
0
0
VERTEX
8
Layer 1
10
37.103353
20
43.838044
70
0
0
VERTEX
8
Layer 1
10
38.095381
20
41.525919
70
0
0
VERTEX
8
Layer 1
10
39.249428
20
39.296781
70
0
0
VERTEX
8
Layer 1
10
40.559834
20
37.159153
70
0
0
VERTEX
8
Layer 1
10
42.020940
20
35.121561
70
0
0
VERTEX
8
Layer 1
10
43.627089
20
33.192529
70
0
0
VERTEX
8
Layer 1
10
45.372621
20
31.380581
70
0
0
VERTEX
8
Layer 1
10
47.251878
20
29.694242
70
0
0
VERTEX
8
Layer 1
10
49.259201
20
28.142037
70
0
0
VERTEX
8
Layer 1
10
51.388932
20
26.732490
70
0
0
VERTEX
8
Layer 1
10
53.635411
20
25.474126
70
0
0
VERTEX
8
Layer 1
10
55.992981
20
24.375470
70
0
0
VERTEX
8
Layer 1
10
54.309497
20
20.863773
70
0
0
VERTEX
8
Layer 1
10
52.192885
20
17.588452
70
0
0
VERTEX
8
Layer 1
10
50.970415
20
16.077532
70
0
0
VERTEX
8
Layer 1
10
49.637573
20
14.671425
70
0
0
VERTEX
8
Layer 1
10
48.193664
20
13.385371
70
0
0
VERTEX
8
Layer 1
10
46.637991
20
12.234610
70
0
0
VERTEX
8
Layer 1
10
44.822507
20
11.156015
70
0
0
VERTEX
8
Layer 1
10
42.885409
20
10.243845
70
0
0
VERTEX
8
Layer 1
10
40.859639
20
9.484738
70
0
0
VERTEX
8
Layer 1
10
38.778141
20
8.865332
70
0
0
VERTEX
8
Layer 1
10
34.579723
20
7.992174
70
0
0
VERTEX
8
Layer 1
10
30.553694
20
7.517477
70
0
0
VERTEX
8
Layer 1
10
26.963588
20
7.334346
70
0
0
VERTEX
8
Layer 1
10
24.072944
20
7.335885
70
0
0
VERTEX
8
Layer 1
10
21.444184
20
7.465390
70
0
0
VERTEX
8
Layer 1
10
21.444184
20
7.465390
70
0
0
SEQEND
8
Layer 1
0
POLYLINE
8
Layer 1
62
7
70
0
10
0.000000
20
0.000000
66
1
0
VERTEX
8
Layer 1
10
118.949350
20
6.773440
70
0
0
VERTEX
8
Layer 1
10
114.824205
20
6.803330
70
0
0
VERTEX
8
Layer 1
10
110.720596
20
7.226390
70
0
0
VERTEX
8
Layer 1
10
106.675669
20
8.037020
70
0
0
VERTEX
8
Layer 1
10
102.726570
20
9.229620
70
0
0
VERTEX
8
Layer 1
10
99.763115
20
10.410671
70
0
0
VERTEX
8
Layer 1
10
96.896565
20
11.809768
70
0
0
VERTEX
8
Layer 1
10
94.140626
20
13.416426
70
0
0
VERTEX
8
Layer 1
10
91.509008
20
15.220160
70
0
0
VERTEX
8
Layer 1
10
89.015417
20
17.210485
70
0
0
VERTEX
8
Layer 1
10
86.673563
20
19.376915
70
0
0
VERTEX
8
Layer 1
10
84.497152
20
21.708965
70
0
0
VERTEX
8
Layer 1
10
82.499893
20
24.196150
70
0
0
VERTEX
8
Layer 1
10
84.900341
20
25.276754
70
0
0
VERTEX
8
Layer 1
10
87.188803
20
26.522176
70
0
0
VERTEX
8
Layer 1
10
89.359363
20
27.923633
70
0
0
VERTEX
8
Layer 1
10
91.406104
20
29.472340
70
0
0
VERTEX
8
Layer 1
10
93.323109
20
31.159515
70
0
0
VERTEX
8
Layer 1
10
95.104461
20
32.976372
70
0
0
VERTEX
8
Layer 1
10
96.744244
20
34.914129
70
0
0
VERTEX
8
Layer 1
10
98.236542
20
36.964002
70
0
0
VERTEX
8
Layer 1
10
99.575436
20
39.117207
70
0
0
VERTEX
8
Layer 1
10
100.755011
20
41.364960
70
0
0
VERTEX
8
Layer 1
10
101.769350
20
43.698477
70
0
0
VERTEX
8
Layer 1
10
102.612536
20
46.108975
70
0
0
VERTEX
8
Layer 1
10
103.278653
20
48.587670
70
0
0
VERTEX
8
Layer 1
10
103.761784
20
51.125778
70
0
0
VERTEX
8
Layer 1
10
104.056012
20
53.714516
70
0
0
VERTEX
8
Layer 1
10
104.155420
20
56.345099
70
0
0
VERTEX
8
Layer 1
10
103.978988
20
59.840919
70
0
0
VERTEX
8
Layer 1
10
103.456404
20
63.275218
70
0
0
VERTEX
8
Layer 1
10
102.597830
20
66.623983
70
0
0
VERTEX
8
Layer 1
10
101.413423
20
69.863201
70
0
0
VERTEX
8
Layer 1
10
99.913344
20
72.968860
70
0
0
VERTEX
8
Layer 1
10
98.107753
20
75.916947
70
0
0
VERTEX
8
Layer 1
10
96.006810
20
78.683450
70
0
0
VERTEX
8
Layer 1
10
93.620673
20
81.244355
70
0
0
VERTEX
8
Layer 1
10
93.680073
20
81.256255
70
0
0
VERTEX
8
Layer 1
10
97.919651
20
86.645402
70
0
0
VERTEX
8
Layer 1
10
102.428624
20
91.811240
70
0
0
VERTEX
8
Layer 1
10
107.194949
20
96.740626
70
0
0
VERTEX
8
Layer 1
10
112.206580
20
101.420415
70
0
0
VERTEX
8
Layer 1
10
116.550746
20
105.111792
70
0
0
VERTEX
8
Layer 1
10
121.047585
20
108.615505
70
0
0
VERTEX
8
Layer 1
10
125.688889
20
111.925471
70
0
0
VERTEX
8
Layer 1
10
130.466450
20
115.035605
70
0
0
VERTEX
8
Layer 1
10
131.545054
20
112.116227
70
0
0
VERTEX
8
Layer 1
10
132.468266
20
109.144066
70
0
0
VERTEX
8
Layer 1
10
133.233673
20
106.127418
70
0
0
VERTEX
8
Layer 1
10
133.838860
20
103.074575
70
0
0
VERTEX
8
Layer 1
10
134.458342
20
98.249338
70
0
0
VERTEX
8
Layer 1
10
134.684940
20
93.394623
70
0
0
VERTEX
8
Layer 1
10
134.532631
20
88.535008
70
0
0
VERTEX
8
Layer 1
10
134.015390
20
83.695071
70
0
0
VERTEX
8
Layer 1
10
133.147194
20
78.899389
70
0
0
VERTEX
8
Layer 1
10
131.942020
20
74.172539
70
0
0
VERTEX
8
Layer 1
10
130.413843
20
69.539100
70
0
0
VERTEX
8
Layer 1
10
128.576640
20
65.023649
70
0
0
VERTEX
8
Layer 1
10
126.238758
20
60.251622
70
0
0
VERTEX
8
Layer 1
10
123.570125
20
55.656345
70
0
0
VERTEX
8
Layer 1
10
120.584767
20
51.260240
70
0
0
VERTEX
8
Layer 1
10
117.296710
20
47.085729
70
0
0
VERTEX
8
Layer 1
10
119.491352
20
41.361362
70
0
0
VERTEX
8
Layer 1
10
120.711228
20
38.130549
70
0
0
VERTEX
8
Layer 1
10
121.750120
20
34.869790
70
0
0
VERTEX
8
Layer 1
10
122.535013
20
31.076946
70
0
0
VERTEX
8
Layer 1
10
122.773573
20
27.658083
70
0
0
VERTEX
8
Layer 1
10
122.675348
20
24.202698
70
0
0
VERTEX
8
Layer 1
10
122.449890
20
20.300290
70
0
0
VERTEX
8
Layer 1
10
122.091164
20
16.803365
70
0
0
VERTEX
8
Layer 1
10
121.382211
20
13.360224
70
0
0
VERTEX
8
Layer 1
10
120.331958
20
10.005408
70
0
0
VERTEX
8
Layer 1
10
118.949330
20
6.773460
70
0
0
VERTEX
8
Layer 1
10
118.949350
20
6.773440
70
0
0
SEQEND
8
Layer 1
0
POLYLINE
8
Layer 1
62
7
70
0
10
0.000000
20
0.000000
66
1
0
VERTEX
8
Layer 1
10
78.602142
20
36.297500
70
0
0
VERTEX
8
Layer 1
10
77.480437
20
39.408390
70
0
0
VERTEX
8
Layer 1
10
66.077545
20
39.408390
70
0
0
VERTEX
8
Layer 1
10
60.962972
20
39.408390
70
0
0
VERTEX
8
Layer 1
10
59.975192
20
36.308800
70
0
0
VERTEX
8
Layer 1
10
54.917988
20
37.695080
70
0
0
VERTEX
8
Layer 1
10
55.177964
20
39.408390
70
0
0
VERTEX
8
Layer 1
10
50.341761
20
39.408390
70
0
0
VERTEX
8
Layer 1
10
50.341761
20
53.510635
70
0
0
VERTEX
8
Layer 1
10
48.013651
20
53.510635
70
0
0
VERTEX
8
Layer 1
10
48.013651
20
59.269455
70
0
0
VERTEX
8
Layer 1
10
50.341761
20
59.269455
70
0
0
VERTEX
8
Layer 1
10
50.341761
20
70.250336
70
0
0
VERTEX
8
Layer 1
10
55.018096
20
70.250336
70
0
0
VERTEX
8
Layer 1
10
54.802740
20
72.109327
70
0
0
VERTEX
8
Layer 1
10
60.124583
20
73.396431
70
0
0
VERTEX
8
Layer 1
10
60.770161
20
70.250336
70
0
0
VERTEX
8
Layer 1
10
77.525426
20
70.250336
70
0
0
VERTEX
8
Layer 1
10
78.490011
20
73.396431
70
0
0
VERTEX
8
Layer 1
10
83.614242
20
72.109327
70
0
0
VERTEX
8
Layer 1
10
83.267432
20
70.250336
70
0
0
VERTEX
8
Layer 1
10
88.362011
20
70.250336
70
0
0
VERTEX
8
Layer 1
10
88.362011
20
59.269475
70
0
0
VERTEX
8
Layer 1
10
90.401681
20
59.269475
70
0
0
VERTEX
8
Layer 1
10
90.401681
20
53.510655
70
0
0
VERTEX
8
Layer 1
10
88.362011
20
53.510655
70
0
0
VERTEX
8
Layer 1
10
88.047090
20
39.408390
70
0
0
VERTEX
8
Layer 1
10
83.566709
20
39.408390
70
0
0
VERTEX
8
Layer 1
10
83.704177
20
37.717599
70
0
0
VERTEX
8
Layer 1
10
78.602142
20
36.297500
70
0
0
SEQEND
8
Layer 1
 0 
ENDSEC
 0 
EOF